<svg width="92" height="87" viewBox="0 0 92 87" fill="none" xmlns="http://www.w3.org/2000/svg">
<g clip-path="url(#clip0_1_20)">
<path d="M23.2787 73.2308C23.2146 73.2339 23.1714 73.2069 23.1467 73.1483C23.1027 73.0297 23.0225 72.9778 22.8967 73.0007L22.9107 73.0105C22.8533 72.8323 22.7191 72.8154 22.5624 72.8443L22.5273 72.8266C22.4687 72.4367 22.2404 72.1956 21.9278 71.9534C21.1344 71.3422 20.3271 70.729 19.6343 70.0116C17.685 67.9983 16.0286 65.7813 15.0097 63.1267C13.7637 59.881 13.4001 56.5701 14.0642 53.1507C14.1974 52.461 14.4581 51.7919 14.4292 51.0733C14.51 50.7869 14.645 50.5037 14.6638 50.2141C14.7174 49.3119 15.4892 48.5816 15.2679 47.6203C15.7665 47.1038 15.5418 46.1663 16.3147 45.8103C16.4764 46.999 16.0087 48.1017 15.8337 49.2436C15.3476 52.4203 14.4715 55.5657 15.0083 58.8224C15.2769 60.4555 15.4941 62.163 16.4181 63.5543C17.3798 65.0028 18.5972 66.2879 20.0447 67.3035C22.8559 69.276 25.8653 70.2114 29.3123 69.2323C30.5113 68.8924 31.5024 68.1686 32.6424 67.7407L33.0176 67.6706C33.0162 67.7321 33.0398 67.8235 33.0086 67.8506C31.3487 69.282 29.5576 70.4052 27.3149 70.7469C26.4076 70.8855 25.5473 70.7177 24.6674 70.7555C24.1668 70.5465 23.664 70.3438 23.1655 70.1285C22.0152 69.6285 20.8689 69.1218 19.7194 68.6178C19.6907 68.61 19.6624 68.6039 19.6336 68.596C19.6619 68.6021 19.6907 68.61 19.719 68.616C20.9487 70.1635 22.5407 71.1399 24.4534 71.6056C24.7192 71.8293 25.0423 71.9198 25.3655 72.0256C27.5842 72.7524 29.6524 72.1041 31.7034 71.3304C31.9158 71.2507 32.1098 71.0631 32.4163 71.326C31.3481 72.343 30.0217 72.6699 28.7039 73.0156C28.1248 73.2052 27.5112 73.0616 26.6588 73.1688C27.5099 73.5224 28.1373 73.6089 28.7937 73.5485C29.0467 73.6781 29.3149 73.6967 29.5965 73.6929C31.8923 73.6604 34.0775 73.1329 36.155 72.1803C37.8974 71.3792 39.1902 70.1305 39.6704 68.203C40.0121 66.827 39.5998 65.51 39.1913 64.2302C38.5177 62.1151 38.5338 60.0169 39.0962 57.8981C40.0127 55.8045 40.9268 53.7096 41.8432 51.616C42.2092 52.731 41.8092 53.7112 41.6758 54.7182L41.6946 54.7171C41.5361 54.7466 41.4061 54.8049 41.4143 54.9996C41.1904 56.0777 40.7871 57.0969 40.4162 58.1307C39.8948 59.5874 39.6248 61.0862 39.9282 62.6396C39.7533 63.5006 40.1909 64.257 40.3813 65.0466C41.1063 68.0637 40.2501 70.5239 37.7391 72.3047C35.8413 73.6503 33.6217 74.0892 31.3886 74.5125C29.8234 74.8094 28.2901 74.5191 26.7441 74.4613L26.7459 74.4608C26.3389 74.0595 25.8337 74.0255 25.3046 74.0761L25.3042 74.0743C25.2169 74.0395 25.131 74.0024 25.0437 73.9676C24.9892 73.9855 24.9407 73.9751 24.9009 73.9319C24.8106 73.6781 24.6373 73.6426 24.4116 73.7448C24.3476 73.7556 24.3012 73.7312 24.2717 73.6758C24.0485 73.2844 23.7288 73.1108 23.2782 73.229L23.2787 73.2308Z" fill="#BB5917"/>
<path d="M31.9586 22.9602C31.5981 21.1636 31.4869 19.3638 31.9533 17.5755C32.6775 14.8036 34.2394 12.5703 36.5722 10.9424C39.9462 8.58538 43.7511 7.78712 47.7922 8.31121C51.3709 8.77498 53.6352 12.0904 52.9379 15.6253C52.4745 17.9727 51.202 19.8773 49.6137 21.5939C47.0628 24.3519 44.2395 26.7349 40.6399 28.04C37.2843 29.2554 34.3989 28.2975 32.7894 25.3959C32.3683 24.6371 32.1274 23.807 31.9568 22.9607L31.9586 22.9602ZM52.1287 15.0565C52.1594 14.9683 52.1884 14.8806 52.2186 14.7906C52.2328 14.6532 52.2488 14.5154 52.2629 14.378C52.3974 14.2554 52.3874 14.1204 52.2988 13.977C52.2345 13.3058 52.056 12.6659 51.8001 12.0441C51.4318 10.9125 50.5222 10.2798 49.5666 9.743C48.0166 8.87043 46.3058 8.82463 44.5845 8.93819C43.4988 8.90306 42.4213 9.12946 41.4107 9.41505C39.3009 10.0129 37.3856 11.0764 35.753 12.5695C33.9059 14.2593 32.6883 16.251 32.7647 18.8928C32.8317 21.2466 34.6544 23.9231 36.8353 24.8068C39.4704 25.8751 41.9237 24.6995 44.3696 24.1315C46.0139 23.7493 47.4571 22.6395 48.6683 21.3774C49.8972 20.0955 51.1634 18.8325 51.6508 17.0369C51.8718 16.3914 52.2011 15.7734 52.1269 15.0569L52.1287 15.0565ZM44.3551 25.0371C39.7171 27.1642 35.6483 26.9988 32.6415 21.9223C32.6587 23.4541 33.2865 24.4518 33.7894 25.4761C34.5455 27.0158 36.55 28.0444 38.2307 27.7292C40.4468 27.3141 42.5503 26.588 44.3528 25.0358L44.3551 25.0371Z" fill="#BB5917"/>
<path d="M56.8809 73.7704C53.9109 72.5955 51.1726 71.0016 48.9312 68.7293C46.0273 65.7834 46.8877 61.3714 50.7103 59.3916C55.7401 56.7851 64.4844 57.3071 69.0457 61.8009C69.5268 62.2748 70.024 62.7369 70.2931 63.3802C70.3028 63.5363 70.3531 63.6647 70.5216 63.711C70.5703 63.8035 70.6167 63.8947 70.6654 63.9872C70.6561 64.173 70.6936 64.3334 70.8959 64.3997C71.1179 64.5793 71.1866 64.831 71.221 65.0973C71.1021 65.2579 71.1513 65.3598 71.3319 65.4164C71.3867 65.599 71.441 65.7799 71.4958 65.9626C71.3146 66.3704 71.4455 66.7149 71.7138 67.0297C71.7292 67.1557 71.7445 67.2817 71.7576 67.4063C71.6144 67.5025 71.6146 67.6438 71.588 67.7997C71.3151 69.391 70.866 70.9799 69.5678 71.9932C66.5113 74.3752 63.0427 74.9969 59.2838 74.0198C58.4998 73.8151 57.7205 73.4583 56.8773 73.7714L56.8809 73.7704ZM69.4295 63.4291C69.2439 63.1981 69.1832 62.8373 68.7931 62.8272L68.8016 62.8307C68.7825 62.4458 68.502 62.2393 68.2431 62.0271C66.8272 60.8678 65.2092 60.072 63.5099 59.4347C63.1569 59.3022 62.7588 59.1279 62.3528 59.3301L62.3649 59.3327C62.3443 59.275 62.3219 59.2177 62.3013 59.16C61.38 58.7634 60.3953 58.7499 59.4233 58.7045C57.0776 58.5952 54.8018 58.8308 52.8136 60.2628C51.6819 60.6637 50.9073 61.5017 50.4324 62.5317C50.0355 63.3908 49.6749 64.3608 50.3337 65.3085C50.1242 65.7619 50.3318 66.1669 50.5542 66.5184C52.4025 69.45 54.9988 71.5143 58.1803 72.7913C60.953 73.9044 63.8083 73.9836 66.6293 72.9233C68.1622 72.3463 69.5911 71.5878 70.2323 69.9149C71.0937 68.4737 71.0857 66.9702 70.5559 65.4274C70.388 64.6434 69.85 64.0677 69.4254 63.4283L69.4295 63.4291ZM51.2926 60.0648C49.4221 61.1168 48.099 62.5071 48.3319 64.8601C48.5531 66.5685 49.3406 67.9779 50.6079 69.124C50.7822 69.2815 51.0134 69.5486 51.2294 69.3572C51.4863 69.1323 51.166 68.9341 51.0319 68.7547C50.1525 67.5735 49.3379 66.3622 49.0879 64.8676C49.1519 62.9997 49.7731 61.4045 51.3413 60.2758C52.2447 59.8631 53.0864 59.3078 54.0802 59.0972C53.1112 59.3148 52.0513 59.2691 51.2903 60.0635L51.2926 60.0648Z" fill="#BB5917"/>
<path d="M75.1082 22.414C75.1254 22.6064 75.1426 22.7987 75.1593 22.9893C74.9916 23.1013 74.9131 23.219 75.1339 23.357C75.2376 23.7887 75.1345 24.1956 74.9883 24.5982C74.9666 24.6325 74.9611 24.6702 74.9695 24.7101C74.8477 25.8439 74.31 26.808 73.6681 27.7016C71.5654 30.6209 68.8517 32.7846 65.5171 34.1551C65.3075 34.127 65.1301 34.1575 65.0733 34.4034C64.6382 34.7296 64.1159 34.851 63.6105 35.0081C63.5319 35.0513 63.4551 35.0941 63.377 35.1391C63.1392 35.2234 62.9035 35.309 62.6657 35.3933C62.4927 35.1819 62.273 35.122 62.0094 35.1805C61.0986 35.3868 60.1625 35.4583 59.253 35.5955C57.6726 35.8332 56.1523 35.6752 54.6189 35.4957C53.1815 35.3259 51.9429 34.6538 51.0061 33.5313C50.8595 33.3552 50.2688 33.0338 50.9027 32.6791C51.0007 32.778 51.0966 32.8756 51.1946 32.9745C51.5718 33.8592 52.3875 34.1723 53.1975 34.4333C55.6273 35.2164 58.1304 35.2623 60.6223 34.9021C61.5829 34.7632 62.6269 34.6734 63.449 34.0047C64.0321 33.8008 64.6156 33.5986 65.1987 33.3947C65.5128 33.606 65.5258 33.3752 65.5457 33.1561C65.8544 33.021 66.1755 32.9115 66.4679 32.75C68.1064 31.8496 69.6197 30.8115 71.0185 29.5297C72.7326 27.9602 74.0529 26.263 74.4263 23.9293C74.9023 20.9501 73.2068 17.8338 70.3615 17.1865C69.5863 16.8458 68.7638 16.6988 67.9343 16.5766C67.6266 16.2203 67.2436 16.3191 66.8631 16.3982C66.3853 16.4183 65.9053 16.4371 65.4275 16.4572C65.3072 16.2723 65.1838 16.1341 65.026 16.4251C63.6831 16.592 62.3454 16.7938 61.0432 17.1776C57.523 18.1393 54.6371 20.1392 52.126 22.7111C50.9285 23.9371 49.8434 25.266 49.3485 26.9661C49.1948 27.2656 49.0406 27.5633 48.8869 27.8629C47.987 29.1917 47.6027 30.699 47.5619 32.2648C47.5333 33.3746 47.5457 34.5178 48.1898 35.5343C48.5379 36.0845 49.2722 36.2447 49.4862 36.9041C47.762 36.1108 46.8361 34.4162 46.9856 32.1842C47.1625 29.5401 48.1479 27.1517 49.5743 24.9705C51.8852 21.4376 54.9923 18.8152 58.9141 17.1976C59.054 17.1405 59.209 17.1197 59.358 17.0831C59.7064 17.0353 60.0888 17.0818 60.3124 16.7127C61.0118 16.4271 61.7377 16.2437 62.4871 16.1516C62.8532 16.3647 63.1604 16.1422 63.4809 16.0156C64.0238 15.8851 64.5655 15.7281 65.1332 15.8491L65.1856 15.8451C65.2765 15.835 65.3675 15.825 65.4589 15.8167C65.6943 15.8858 65.9279 16.1103 66.1741 15.8366C66.3091 15.8342 66.4463 15.8332 66.5812 15.8309C66.7264 16.0017 66.8898 15.9691 67.0577 15.8723C67.3185 15.7954 67.5742 15.8097 67.8238 15.9191L67.8584 15.9198C67.9503 15.9209 68.0427 15.9238 68.1346 15.9249C68.262 16.1672 68.4412 16.1439 68.6388 16.0222C70.9566 16.3929 72.9811 17.2328 74.1327 19.4692C74.017 19.7532 74.0883 19.9259 74.4188 19.9418C74.4691 20.0626 74.5175 20.1838 74.5678 20.3046C74.4275 20.5453 74.4898 20.7126 74.751 20.8076C74.9172 21.0819 74.9993 21.3779 74.9978 21.6974C74.7798 21.9771 74.8515 22.2108 75.1118 22.4131L75.1082 22.414Z" fill="#BB5917"/>
<path d="M57.3225 43.0521C57.4871 41.1965 58.4589 39.7765 59.9612 38.8214C64.6018 35.8759 69.7129 34.8648 75.1441 35.4868C78.0296 35.8161 80.7481 36.6452 82.9625 38.6647C83.232 38.9104 83.4647 39.1981 83.7134 39.4664C83.7546 39.5226 83.7958 39.5788 83.8389 39.6346C84.1513 39.9208 84.4348 40.2279 84.5466 40.6538C84.4438 40.9287 84.5106 41.1063 84.8252 41.1417C84.8759 41.2566 84.9265 41.3716 84.9776 41.4883C84.8332 41.7721 85.0096 42.0265 85.048 42.2937C85.3676 44.4352 84.9368 46.4206 83.5652 48.089C81.2047 50.9564 77.9718 52.6025 74.5913 53.8396C72.2191 54.7077 69.7222 55.2411 67.1245 55.3095C63.4237 55.4084 60.6772 54.2045 58.9091 50.7553C57.8599 48.7084 57.6532 46.5683 57.4015 44.394C57.3588 44.0287 57.3447 43.4266 58.0803 43.6438C58.0978 43.7558 58.117 43.8674 58.135 43.9813C57.8637 44.1506 57.9637 44.3904 57.9836 44.6375C58.1103 46.3052 58.58 47.9036 59.0692 49.4816C59.7415 51.6506 61.0434 53.3304 63.2743 54.1267C65.556 54.9423 67.8737 54.7283 70.1611 54.249C72.0175 53.8598 73.8569 53.3757 75.6401 52.6806C78.3248 51.6326 80.8086 50.2867 82.7584 48.1214C83.1474 47.6905 83.6467 47.2655 83.6917 46.5967C84.5129 45.5174 84.6694 44.2446 84.59 42.9678C84.5512 42.3511 84.5401 41.605 83.8889 41.175C83.7203 40.8842 83.7624 40.4778 83.4045 40.2893C83.4118 40.2511 83.408 40.2139 83.3911 40.1781C83.1941 39.7474 82.8705 39.4182 82.5127 39.1265C79.5451 36.6957 76.017 36.0507 72.3257 35.9427C69.2017 35.8507 66.2093 36.5349 63.3553 37.726C61.0975 38.6677 58.9242 39.8112 58.1887 42.4656C57.7609 42.4576 57.7168 43.0116 57.3239 43.0575L57.3225 43.0521Z" fill="#BB5917"/>
<path d="M34.018 34.353C34.5414 34.495 34.6439 35.292 35.3229 35.1933C35.8833 36.1148 36.5091 36.9717 37.4413 37.5661C39.0656 38.601 40.9039 39.0668 42.7238 39.5869C44.0819 40.1747 45.3433 40.8905 46.4372 41.9266C49.204 44.541 50.1607 48.4269 48.7751 51.7057C48.6711 51.4135 48.6275 51.119 48.6242 50.8027C48.5967 48.3508 47.7612 46.2889 45.88 44.6134C44.5911 43.4652 43.1079 42.6518 41.6136 41.9063C39.4815 40.8419 37.6451 39.5102 36.201 37.6053C35.8568 37.1515 35.61 36.5502 34.8599 36.2031C35.3696 37.3574 36.0161 38.272 36.2092 39.3686C36.2444 39.5716 36.3576 39.8251 36.0511 39.9023C35.8125 39.962 35.7735 39.7294 35.6952 39.5662C34.8553 37.813 33.6778 36.2826 32.5697 34.6961C32.1581 34.1068 31.265 33.7086 31.4446 32.7548C32.4066 33.2574 32.8844 34.3398 33.8886 34.7914C33.9478 34.9691 34.0656 35.233 34.2262 35.1304C34.4229 35.0051 34.2507 34.826 34.0627 34.7484C34.0483 34.6184 34.0351 34.4861 34.0207 34.3561L34.018 34.353Z" fill="#FDCB73"/>
<path d="M14.4266 51.078C14.4554 51.7966 14.1947 52.4657 14.0615 53.1554C13.3974 56.5748 13.7611 59.8857 15.007 63.1314C16.026 65.786 17.6823 68.003 19.6316 70.0163C20.3263 70.7332 21.1318 71.3469 21.9251 71.9581C22.2395 72.1998 22.4678 72.4409 22.5246 72.8313C20.0185 71.7602 17.7393 70.3326 15.7338 68.4789C15.6489 68.4015 15.5402 68.313 15.605 68.1644C15.6587 68.1506 15.7106 68.1372 15.7643 68.1233C15.7971 68.1397 15.83 68.1561 15.8651 68.1738L15.7736 68.1076C15.6955 67.6348 15.4075 67.2658 15.1383 66.8958C14.174 65.5703 13.4941 64.0968 13.0087 62.5483C11.733 58.4697 11.6691 54.3229 12.5373 50.163C12.6523 49.6098 12.5289 48.9022 13.1577 48.5203C13.2958 48.9222 13.3653 49.3399 13.4569 49.7538C13.5799 50.3048 13.63 50.9873 14.4235 51.0807L14.4266 51.078Z" fill="#DF7822"/>
<path d="M50.904 32.677C50.2696 33.0298 50.8604 33.3512 51.0074 33.5292C51.9442 34.6517 53.1828 35.3237 54.6202 35.4936C56.1519 35.6735 57.6721 35.8315 59.2543 35.5934C60.1639 35.4561 61.0999 35.3847 62.0107 35.1783C62.2739 35.1181 62.4941 35.1797 62.667 35.3911C60.6171 36.3843 58.464 37.0583 56.2245 37.4718C54.7394 37.746 53.2442 37.87 51.7408 37.6886C51.2678 37.631 50.7588 37.619 50.3572 37.2832C50.1612 36.9306 49.7898 36.971 49.474 36.8863L49.484 36.9028C49.2699 36.2435 48.5356 36.0833 48.1875 35.533C47.5452 34.5161 47.5324 33.3711 47.5597 32.2635C47.6005 30.6978 47.9848 29.1905 48.8847 27.8616C49.2969 29.578 49.6346 31.3232 50.9032 32.681L50.904 32.677Z" fill="#DF7822"/>
<path d="M57.3225 43.0522C57.7154 43.0063 57.7595 42.4523 58.1873 42.4603C58.1612 42.8549 58.2976 43.2649 58.0817 43.6416C57.346 43.4245 57.3606 44.0283 57.4028 44.3919C57.6546 46.5662 57.8594 48.7067 58.9104 50.7531C60.6785 54.2023 63.425 55.4062 67.1259 55.3073C69.7236 55.2389 72.2199 54.7038 74.5927 53.8375C77.9736 52.6021 81.2065 50.956 83.5665 48.0868C84.9386 46.4202 85.3707 44.4325 85.0493 42.2915C85.0091 42.0248 84.8328 41.7703 84.979 41.4861C86.1899 43.6269 85.7443 46.5391 83.8609 48.7618C82.1121 50.8255 79.8549 52.1913 77.4514 53.3234C73.8177 55.0367 70.0127 56.0413 65.9525 55.8795C62.2457 55.7334 59.6544 53.9621 58.3247 50.4954C57.518 48.3897 56.9846 46.204 57.1077 43.9139C57.1229 43.6177 57.0711 43.291 57.3257 43.0495L57.3225 43.0522Z" fill="#DF7822"/>
<path d="M48.7728 51.7045C50.1585 48.4257 49.2017 44.5398 46.4349 41.9254C45.3397 40.8915 44.0801 40.1752 42.7215 39.5857C42.8934 39.4382 42.8929 39.1403 43.165 39.0777C48.027 40.6969 52.6288 47.0126 49.079 53.8457C47.5893 56.7138 45.2183 58.7413 42.6853 60.6215C42.3871 60.5532 42.1269 60.4178 41.922 60.186C42.3923 59.545 43.0693 59.1353 43.649 58.6151C44.345 57.9903 45.2054 57.5295 45.6551 56.6531C47.1902 55.3151 48.2951 53.7078 48.7719 51.7009L48.7728 51.7045Z" fill="#BB5917"/>
<path d="M20.7295 25.1638C20.9695 25.0732 21.2078 24.9831 21.4483 24.8943C21.7679 25.001 22.0413 24.9209 22.2771 24.6881C22.4693 24.6634 22.6632 24.6382 22.8553 24.6134C23.0633 24.8349 23.2765 24.7512 23.4894 24.6218C23.9086 24.3894 24.2302 24.8663 24.6286 24.7826C24.6945 25.0235 24.7605 25.2644 24.8265 25.5053C24.6872 25.4687 24.5475 25.4302 24.4082 25.3935C24.3331 25.3613 24.2562 25.3296 24.1815 25.2992C24.1211 25.309 24.061 25.3131 24 25.3135C23.1888 25.0031 22.396 25.1045 21.6183 25.4274C19.3167 26.3843 17.8448 28.2486 16.6149 30.274C13.9457 34.6674 12.8371 39.6344 11.608 44.5485C11.2338 45.8431 10.8357 47.1265 10.2897 48.3622C9.95382 48.296 10.0634 48.0843 10.1151 47.8704C11.4682 42.29 12.5103 36.614 15.1658 31.4351C16.3089 29.2066 17.6627 27.1358 19.7581 25.6609C19.8812 25.5757 20.0324 25.5328 20.1709 25.4703C20.4208 25.4842 20.652 25.4628 20.7312 25.1634L20.7295 25.1638Z" fill="#BB5917"/>
<path d="M15.7674 68.1207C15.7137 68.1345 15.6622 68.1497 15.6081 68.1618C13.4915 66.1954 12.4397 63.6505 11.6893 60.9419C11.4596 60.1108 11.2679 59.2718 11.2016 58.4081C11.5194 58.2783 11.396 58.0293 11.3986 57.7879C11.4171 55.3586 11.2172 52.9263 11.597 50.4993C11.8406 48.95 12.459 47.5065 12.7251 45.9705C12.7577 45.8379 12.7916 45.703 12.8242 45.5704L12.8189 45.5794C13.2211 45.1184 13.2956 44.5412 13.3826 43.9685C13.6646 43.5003 13.9371 43.0249 14.2353 42.5678C14.3802 42.345 14.5928 42.0074 14.8461 42.1236C15.1931 42.2843 14.9935 42.6282 14.8953 42.921C14.6166 43.7495 14.1275 44.51 14.0744 45.4141C13.4274 46.3472 13.0591 47.3612 13.1599 48.514C12.5316 48.8978 12.6567 49.6049 12.5413 50.1563C11.6731 54.3162 11.7352 58.4634 13.0126 62.5416C13.4958 64.0888 14.1779 65.5636 15.1423 66.8891C15.4115 67.2591 15.6977 67.6285 15.7775 68.1009L15.7682 68.1166L15.7674 68.1207Z" fill="#BB5917"/>
<path d="M41.9224 60.1877C42.1291 60.4191 42.3888 60.5527 42.6858 60.6232C41.3049 61.9749 40.9983 63.6055 41.1765 65.4949C41.6376 70.3895 39.2329 72.4639 35.4641 73.868C32.9422 74.8072 30.3615 75.1635 27.6902 74.7618C27.3626 74.7126 27.0094 74.7273 26.746 74.4685C28.2924 74.5281 29.8253 74.8166 31.3905 74.5198C33.6236 74.0964 35.8431 73.6575 37.741 72.3119C40.2537 70.5306 41.1086 68.0727 40.3831 65.0539C40.1928 64.2642 39.7556 63.5096 39.9301 62.6468C40.1611 62.8318 40.395 63.1688 40.5108 62.5447C40.6864 61.59 41.1168 60.772 41.9229 60.1895L41.9224 60.1877Z" fill="#DF7822"/>
<path d="M56.8809 73.7706C57.7223 73.4579 58.5016 73.8148 59.2874 74.019C63.045 74.9984 66.5149 74.3744 69.5714 71.9924C70.8701 70.9809 71.3187 69.3902 71.5916 67.7989C71.6181 67.643 71.6193 67.4994 71.7611 67.4055C72.1 69.5401 71.2647 71.2307 69.7426 72.6341C66.7038 75.4319 60.4543 75.9744 56.8827 73.7701L56.8809 73.7706Z" fill="#DF7822"/>
<path d="M24.8242 25.5041C24.7583 25.2632 24.6923 25.0223 24.6263 24.7814C26.3823 25.1575 27.6206 26.3169 28.2807 27.8394C29.1115 29.7573 30.5352 31.0503 32.0111 32.3757C32.7073 33.0023 33.4859 33.5562 34.0197 34.3527C34.0342 34.4827 34.0473 34.615 34.0618 34.745C34.0022 34.7508 33.9431 34.7661 33.8882 34.7898C32.8844 34.3399 32.4062 33.2558 31.4441 32.7531C30.5857 32.0155 29.7267 31.2761 28.8683 30.5384C28.5029 29.9067 28.0593 29.3046 27.7892 28.6349C27.2054 27.1863 26.1707 26.2095 24.8265 25.5054L24.8242 25.5041Z" fill="#DF7822"/>
<path d="M12.7273 45.9716C12.4612 47.5076 11.8429 48.9511 11.5993 50.5004C11.2176 52.9279 11.4189 55.3579 11.4009 57.789C11.3983 58.0304 11.5221 58.2813 11.2039 58.4092C10.8037 56.9171 10.838 55.3855 10.7688 53.8595C10.6829 51.9577 11.0865 50.1187 11.3753 48.2635C11.3685 48.1927 11.3639 48.1232 11.3571 48.0523C11.4021 47.842 11.4466 47.6299 11.4899 47.42C11.7705 46.6579 12.0506 45.894 12.3308 45.1301C12.3867 45.1099 12.4421 45.088 12.4966 45.0624C12.7385 45.1491 12.7609 45.3764 12.8207 45.5787L12.826 45.5697C12.6164 45.6601 12.3943 45.7461 12.7269 45.9698L12.7273 45.9716Z" fill="#DF7822"/>
<path d="M43.165 39.0777C42.8942 39.138 42.8952 39.4377 42.7215 39.5857C40.9021 39.0673 39.0634 38.5998 37.4391 37.5649C36.5068 36.9704 35.8792 36.114 35.3206 35.192C35.1649 34.8176 35.0848 34.4332 35.2184 34.0338C35.2684 34.0572 35.3182 34.0577 35.3691 34.0331C36.3463 36.2667 38.2377 37.3454 40.4193 38.0837C41.3412 38.3942 42.3186 38.5566 43.1655 39.0794L43.165 39.0777Z" fill="#DF7822"/>
<path d="M12.3308 45.1301C12.0506 45.894 11.7682 46.6566 11.4898 47.4201C10.8125 47.4879 10.8188 48.0824 10.6309 48.5302C10.5741 48.6652 10.4983 48.8452 10.3147 48.755C10.1356 48.6675 10.2665 48.4943 10.2865 48.3573C10.833 47.1234 11.2306 45.8381 11.6048 44.5436C12.0829 44.4432 12.2439 44.7417 12.3303 45.1283L12.3308 45.1301Z" fill="#FDCB73"/>
<path d="M9.42932 51.4424C9.42381 50.9031 9.3456 50.3558 9.69595 49.8566C10.0249 50.4137 10.001 50.5727 9.42932 51.4424Z" fill="#FDCB73"/>
<path d="M25.3055 74.0798C25.8329 74.0297 26.3398 74.0632 26.7468 74.4645C26.2334 74.4575 25.7322 74.4091 25.3055 74.0798Z" fill="#DF7822"/>
<path d="M71.7152 67.0276C71.4469 66.7128 71.316 66.3683 71.4971 65.9604C71.7582 66.2771 71.8059 66.6393 71.7152 67.0276Z" fill="#DF7822"/>
<path d="M23.2787 73.231C23.7297 73.1146 24.0507 73.2859 24.2721 73.6778C23.8784 73.6685 23.5622 73.4865 23.2787 73.231Z" fill="#DF7822"/>
<path d="M60.3097 16.7098C60.0861 17.0789 59.7037 17.0323 59.3553 17.0802C59.5981 16.7634 59.926 16.6655 60.3097 16.7098Z" fill="#DF7822"/>
<path d="M22.2766 24.6864C22.0408 24.9192 21.7675 24.9993 21.4479 24.8926C21.6721 24.615 21.9478 24.5439 22.2766 24.6864Z" fill="#F79F3A"/>
<path d="M63.4804 16.0138C63.1595 16.1386 62.8523 16.3612 62.4866 16.1498C62.7952 15.9327 63.1224 15.8616 63.4804 16.0138Z" fill="#DF7822"/>
<path d="M75.1082 22.414C74.8457 22.2104 74.7762 21.9781 74.9942 21.6983C75.1922 21.9109 75.1869 22.1568 75.1082 22.414Z" fill="#DF7822"/>
<path d="M49.4753 36.8839C49.7912 36.9687 50.1625 36.9283 50.3585 37.2808C50.0211 37.2456 49.7004 37.1717 49.4753 36.8839Z" fill="#BB5917"/>
<path d="M74.7488 20.8065C74.4875 20.7115 74.4253 20.5441 74.5655 20.3035C74.7239 20.4365 74.8157 20.5924 74.7488 20.8065Z" fill="#DF7822"/>
<path d="M74.4166 19.9406C74.086 19.9246 74.017 19.7533 74.1305 19.468C74.3401 19.5553 74.4163 19.7248 74.4166 19.9406Z" fill="#DF7822"/>
<path d="M84.823 41.1405C84.5066 41.1055 84.4398 40.9279 84.5444 40.6525C84.7692 40.7397 84.8459 40.911 84.823 41.1405Z" fill="#DF7822"/>
<path d="M66.1732 15.8331C65.9274 16.1086 65.6957 15.8838 65.4579 15.8133C65.6993 15.7128 65.9396 15.6603 66.1732 15.8331Z" fill="#DF7822"/>
<path d="M23.4867 24.6187C23.2743 24.75 23.0624 24.8314 22.8526 24.6104C23.0668 24.4194 23.2777 24.4376 23.4867 24.6187Z" fill="#F79F3A"/>
<path d="M20.7295 25.1639C20.6502 25.4633 20.4185 25.4829 20.1691 25.4708C20.2671 25.2067 20.4537 25.1013 20.7295 25.1639Z" fill="#F79F3A"/>
<path d="M70.8954 64.3979C70.6927 64.3298 70.6556 64.1713 70.6649 63.9855C70.8293 64.0749 70.9597 64.1807 70.8954 64.3979Z" fill="#DF7822"/>
<path d="M70.5229 63.7087C70.3544 63.6624 70.3041 63.534 70.2944 63.3779C70.4451 63.4365 70.6118 63.4833 70.5229 63.7087Z" fill="#DF7822"/>
<path d="M24.4125 73.7484C24.6382 73.6462 24.8115 73.6817 24.9018 73.9355C24.696 73.9886 24.5388 73.9049 24.4125 73.7484Z" fill="#DF7822"/>
<path d="M67.0572 15.8705C66.8894 15.9673 66.726 15.9999 66.5807 15.8291C66.7536 15.6851 66.907 15.7545 67.0572 15.8705Z" fill="#DF7822"/>
<path d="M68.6371 16.0226C68.4394 16.1443 68.2602 16.1676 68.1328 15.9254C68.3219 15.8518 68.4837 15.9094 68.6371 16.0226Z" fill="#DF7822"/>
<path d="M71.3315 65.4147C71.1508 65.3582 71.1034 65.2558 71.2205 65.0956C71.3609 65.1664 71.4119 65.2679 71.3315 65.4147Z" fill="#DF7822"/>
<path d="M75.1352 23.3548C74.9127 23.2173 74.9911 23.0997 75.1606 22.9871C75.2764 23.1178 75.2504 23.2391 75.1352 23.3548Z" fill="#DF7822"/>
<path d="M65.0746 34.4011C65.1315 34.1553 65.3088 34.1248 65.5184 34.1529C65.427 34.3389 65.3061 34.4694 65.0746 34.4011Z" fill="#DF7822"/>
<path d="M83.8371 39.6352C83.7958 39.5789 83.7546 39.5227 83.7116 39.4669C83.8509 39.452 83.8712 39.5232 83.8371 39.6352Z" fill="#DF7822"/>
<path d="M22.561 72.8466C22.7173 72.8158 22.8519 72.8346 22.9094 73.0127C22.7566 73.035 22.63 73.0027 22.561 72.8466Z" fill="#DF7822"/>
<path d="M22.8954 73.0032C23.0212 72.9803 23.1032 73.0317 23.1454 73.1508C23.062 73.1016 22.9787 73.0524 22.8954 73.0032Z" fill="#DF7822"/>
<path d="M65.1851 15.8434L65.1327 15.8473L65.1471 15.7997L65.1851 15.8434Z" fill="#DF7822"/>
<path d="M35.3691 34.0331C35.3182 34.0577 35.2688 34.059 35.2184 34.0338C35.2414 33.9896 35.2648 33.9473 35.2878 33.9031C35.3142 33.946 35.3427 33.9902 35.3691 34.0331Z" fill="#FDCB73"/>
<path d="M74.9726 24.7075C74.9624 24.6681 74.9697 24.6299 74.9914 24.5956L75.03 24.6564L74.9744 24.707L74.9726 24.7075Z" fill="#DF7822"/>
<path d="M67.8579 15.9181L67.8234 15.9174L67.8267 15.8784L67.8579 15.9181Z" fill="#DF7822"/>
<path d="M11.3553 48.053C11.3621 48.1238 11.3667 48.1933 11.3735 48.2642C11.2583 48.2022 11.2891 48.1293 11.3553 48.053Z" fill="#FDCB73"/>
<path d="M12.3308 45.1301C12.2426 44.744 12.0838 44.4468 11.6053 44.5454C12.8344 39.6313 13.943 34.6643 16.6122 30.2709C17.8425 28.2473 19.3122 26.3816 21.6156 25.4243C22.3933 25.1014 23.1861 25 23.9973 25.3104C23.4308 25.4527 23.0411 25.9029 22.494 26.1282C21.2171 26.6544 19.7974 27.0341 18.9978 28.3447C18.9203 28.4736 18.7809 28.5841 18.8826 28.7489C18.9874 28.9187 19.1591 28.8514 19.2969 28.8083C19.4999 28.7444 19.6897 28.6439 19.8891 28.5657C20.9217 28.1655 21.9503 27.8906 23.1005 27.9683C24.9756 28.0959 26.2024 29.092 27.1837 30.5794C27.6473 31.2813 28.0612 32.042 28.8 32.5525C28.7982 32.0868 28.6982 31.677 28.5874 31.27C28.5016 30.952 28.4477 30.6545 28.8696 30.5361C29.7281 31.2737 30.587 32.0131 31.4455 32.7508C31.2659 33.7047 32.1589 34.1029 32.5706 34.6921C33.6782 36.2769 34.8557 37.8072 35.696 39.5622C35.7744 39.7254 35.8134 39.958 36.0519 39.8984C36.3589 39.823 36.2453 39.5676 36.2101 39.3646C36.0169 38.2681 35.3705 37.3534 34.8608 36.1991C35.6109 36.5463 35.8572 37.1457 36.2019 37.6013C37.6459 39.5062 39.4824 40.8379 41.6145 41.9023C43.1092 42.6497 44.5924 43.463 45.8809 44.6094C47.7616 46.2832 48.5971 48.3451 48.6251 50.7988C48.6284 51.1151 48.6715 51.4077 48.7759 51.7018C48.3009 53.7082 47.1947 55.3177 45.6591 56.6539C45.6512 56.6235 45.6344 56.5953 45.636 56.5643C45.6462 55.2797 45.6449 55.2743 44.4576 55.7411C43.7885 56.0035 43.1586 55.9521 43.0024 55.1842C42.7918 54.1456 42.3081 54.3354 41.6807 54.7227C41.8137 53.714 42.2119 52.7343 41.8482 51.6206C40.9318 53.7142 40.0176 55.809 39.1012 57.9026C38.7261 57.5733 38.5645 56.9176 37.9764 56.9318C37.0472 56.9557 36.2377 56.6448 35.3659 56.3883C33.4605 55.8252 31.4875 55.5031 29.739 54.4678C29.2701 54.1894 28.7337 53.812 28.2402 53.8304C26.7054 53.8825 25.8487 52.619 24.6931 52.0172C23.3021 51.2947 21.9965 50.1928 21.1495 48.6708C20.4897 47.4826 19.7709 47.412 18.6861 48.3052C19.0605 47.3813 18.7328 46.6958 18.7525 45.9953C18.7725 45.266 18.4453 45.2262 17.9037 45.4061C17.7359 45.2068 18.2722 44.6442 17.5537 44.7302C17.4069 44.7013 17.2601 44.6723 17.1114 44.6437C17.195 44.3165 17.2803 43.9888 17.3639 43.6615C17.8204 43.0928 18.2792 42.5255 18.7375 41.9563L18.5345 41.7985C17.9165 42.2369 17.4253 42.7821 17.235 43.5763C16.716 44.2356 16.1416 44.8729 16.3125 45.8166L16.3121 45.8148C15.5396 46.1727 15.7657 47.1079 15.267 47.6244C15.0399 47.5359 15.0363 47.2999 14.9314 47.1302C14.5941 46.5848 14.602 45.8682 14.0789 45.4166C14.1324 44.5143 14.6211 43.752 14.8999 42.9235C14.998 42.6307 15.1994 42.2864 14.8507 42.1261C14.5969 42.0082 14.3861 42.3453 14.2398 42.5703C13.9421 43.0292 13.6691 43.5028 13.3871 43.9711C13.2007 43.5224 12.9649 43.5851 12.806 43.9605C12.6576 44.3102 12.5987 44.6961 12.4993 45.0656C12.4448 45.0912 12.3894 45.1131 12.3335 45.1333L12.3308 45.1301ZM18.2546 43.703C18.1991 43.8205 18.1238 43.9431 18.345 43.9644C18.7374 43.7389 18.762 43.383 18.7617 42.9455C18.351 43.1145 18.2373 43.3693 18.2546 43.703ZM20.3424 32.0541C17.5622 32.4141 15.9322 36.6177 16.8672 40.3009C16.9894 37.1416 17.0239 33.9458 20.3424 32.0541ZM42.4438 48.794L42.1829 48.7963C42.0885 49.5773 41.9958 50.3578 41.9019 51.1405L42.1837 51.1672C42.602 50.4135 42.4895 49.5999 42.446 48.7953L42.4438 48.794ZM19.175 41.6543C19.2182 41.5552 19.249 41.4823 19.2816 41.4089C19.2043 41.383 19.1141 41.3222 19.0547 41.3433C18.9952 41.3644 18.9655 41.4714 18.9239 41.5394C18.9973 41.5721 19.0711 41.6066 19.175 41.6543ZM42.3964 48.2846C42.4207 48.2382 42.4491 48.2003 42.4595 48.1594C42.4647 48.1351 42.4496 48.0989 42.4306 48.077C42.3759 48.0128 42.3267 48.0293 42.3287 48.1186C42.3287 48.1702 42.3685 48.2211 42.3964 48.2846Z" fill="#FDAC46"/>
<path d="M17.9015 45.4048C18.4435 45.2267 18.7702 45.2647 18.7503 45.994C18.7306 46.6945 19.06 47.3795 18.6838 48.3039C19.7691 47.4125 20.4857 47.4817 21.1472 48.6695C21.9925 50.192 23.2994 51.2916 24.6909 52.0159C25.846 52.6159 26.7014 53.8816 28.2379 53.8291C28.7319 53.8125 29.2683 54.1899 29.7368 54.4665C31.4853 55.5018 33.457 55.8262 35.3637 56.387C36.2355 56.6435 37.0444 56.9526 37.9742 56.9305C38.5623 56.9163 38.7238 57.572 39.099 57.9013C38.5387 60.0214 38.5222 62.1178 39.194 64.2334C39.6007 65.5137 40.0153 66.8321 39.6731 68.2062C39.193 70.1337 37.9001 71.3825 36.1577 72.1836C34.0825 73.1374 31.895 73.6636 29.5992 73.6961C29.3176 73.7 29.0489 73.6795 28.7964 73.5517C28.7659 73.3742 28.7354 73.1968 28.7049 73.0193C30.0226 72.6736 31.349 72.3467 32.4172 71.3297C32.1108 71.0668 31.9167 71.2544 31.7044 71.3341C29.6515 72.1083 27.5851 72.7561 25.3664 72.0293C25.045 71.9231 24.7201 71.833 24.4561 71.6088C24.7525 71.3814 24.4169 70.998 24.6661 70.7579C25.5459 70.72 26.4063 70.8878 27.3136 70.7493C29.5558 70.4058 31.3473 69.2844 33.0073 67.853C33.0385 67.8259 33.0149 67.7345 33.0162 67.673C33.3788 67.5317 33.5666 67.2979 33.5025 66.7757C33.0853 67.0973 32.6722 67.2421 32.6415 67.7449C31.5015 68.1727 30.5104 68.8965 29.3114 69.2365C25.8644 70.2156 22.855 69.2801 20.0438 67.3076C18.5963 66.2921 17.3803 65.0047 16.4172 63.5585C15.4932 62.1671 15.276 60.4596 15.0074 58.8266C14.4707 55.5699 15.3467 52.4244 15.8328 49.2477C16.0079 48.1059 16.4755 47.0032 16.3139 45.8144L16.3125 45.8167C16.9535 45.6819 16.6115 44.874 17.1114 44.6438C17.2583 44.6728 17.4051 44.7017 17.5537 44.7303C17.0884 46.4782 16.5336 48.1976 16.3948 50.0275C16.2577 51.834 16.6317 53.5354 17.4146 55.1046C17.8809 56.0389 18.7059 56.7948 19.3705 57.6321C19.8042 58.3437 20.2606 59.0322 21.1283 59.2803C21.1423 59.2977 21.1537 59.3196 21.1708 59.3342C21.1808 59.3431 21.2018 59.3358 21.2175 59.3375C21.1864 59.3207 21.1549 59.3021 21.1238 59.2852C20.8225 58.5318 20.2291 58.0372 19.6063 57.5693C19.465 57.2657 19.3366 56.953 19.1765 56.658C17.2447 53.0773 16.81 49.3281 17.9001 45.4071L17.9015 45.4048ZM21.1368 65.9576C21.0292 65.6071 20.7327 65.4791 20.4292 65.3606C20.1938 64.8405 19.9174 64.3539 19.3667 64.0986C18.5447 62.5185 17.7841 60.9169 17.4525 59.1434C17.2439 58.0241 17.1886 56.8996 17.139 55.768C17.1274 55.4863 17.1516 55.0177 16.8236 54.9819C16.3991 54.9348 16.4082 55.4139 16.3204 55.725C16.3034 55.7848 16.2922 55.845 16.2851 55.9061C15.8492 59.2112 17.0263 61.9607 19.1912 64.3732C19.6316 64.6742 19.6653 65.4412 20.3901 65.4166C20.5046 65.7787 20.6771 66.0628 21.1301 65.9689C21.163 65.9852 21.1963 66.0034 21.2292 66.0197L21.1381 65.9554L21.1368 65.9576ZM19.0404 51.2249C19.2356 50.3683 18.7176 49.6556 18.5353 48.8676C18.44 49.7042 18.4988 50.524 18.7323 51.3331C19.2661 53.9123 20.3644 56.2235 22.0234 58.2659C22.478 59.0065 23.1837 59.4779 23.8393 60.0061C23.512 59.1448 22.8852 58.5576 22.1724 58.0441C20.9194 55.8664 19.7402 53.6562 19.0386 51.2254L19.0404 51.2249Z" fill="#F79F3A"/>
<path d="M41.6771 54.7237C42.3045 54.3364 42.7882 54.1466 42.9989 55.1851C43.155 55.9531 43.7849 56.0045 44.454 55.7421C45.6413 55.2753 45.6449 55.282 45.6324 56.5653C45.6322 56.594 45.6477 56.6244 45.6555 56.6549C45.2041 57.5318 44.3459 57.994 43.6495 58.6169C43.0697 59.1371 42.3927 59.5468 41.9224 60.1878C41.1163 60.7703 40.6841 61.5888 40.5104 62.543C40.3964 63.1667 40.1606 62.8301 39.9296 62.6451C39.6262 61.0917 39.8962 59.5929 40.4176 58.1362C40.7867 57.1029 41.1918 56.0832 41.4139 55.0056C41.5543 54.9579 41.6717 54.8875 41.6942 54.7231L41.6753 54.7242L41.6771 54.7237Z" fill="#F79F3A"/>
<path d="M14.0753 45.4175C14.598 45.8673 14.5901 46.5839 14.9279 47.1311C15.0332 47.3026 15.0381 47.5364 15.2635 47.6254C15.4847 48.5866 14.7147 49.3164 14.6594 50.2192C14.6423 50.5083 14.5073 50.7915 14.4248 51.0783C13.6314 50.985 13.5813 50.3024 13.4582 49.7515C13.3654 49.3398 13.2976 48.9217 13.159 48.518C13.056 47.3638 13.4261 46.3493 14.0713 45.4167L14.0753 45.4175Z" fill="#F79F3A"/>
<path d="M24.6648 70.76C24.4151 70.9983 24.7512 71.3835 24.4548 71.6109C22.5421 71.1453 20.9501 70.1689 19.7204 68.6214C20.868 69.1259 22.0143 69.6326 23.1647 70.1325C23.6613 70.3483 24.1659 70.5505 24.6666 70.7595L24.6648 70.76Z" fill="#DF7822"/>
<path d="M28.7035 73.0215C28.7341 73.199 28.7646 73.3764 28.7951 73.5539C28.1387 73.6143 27.5094 73.5283 26.6584 73.1747C27.5108 73.0675 28.1244 73.2111 28.7035 73.0215Z" fill="#DF7822"/>
<path d="M32.6397 67.7453C32.6704 67.2426 33.0858 67.0991 33.5007 66.7761C33.5648 67.2984 33.377 67.5322 33.0144 67.6735C32.8886 67.6964 32.7651 67.7206 32.6393 67.7435L32.6397 67.7453Z" fill="#DF7822"/>
<path d="M41.696 54.7227C41.6739 54.8889 41.5561 54.9575 41.4157 55.0052C41.4074 54.8105 41.5352 54.7508 41.696 54.7227Z" fill="#FDAC46"/>
<path d="M19.7186 68.6219C19.6903 68.6159 19.6615 68.608 19.6332 68.6019C19.662 68.6098 19.6903 68.6159 19.7191 68.6237L19.7186 68.6219Z" fill="#DF7822"/>
<path d="M51.6526 17.0363C51.1652 18.832 49.899 20.0949 48.67 21.3768C47.4589 22.6389 46.0152 23.747 44.3714 24.131C41.926 24.7008 39.4722 25.8745 36.837 24.8062C34.6539 23.9212 32.8331 21.2442 32.7665 18.8922C32.6918 16.25 33.9081 14.2606 35.7548 12.5689C37.3856 11.0763 39.3031 10.0141 41.4125 9.41449C42.4227 9.12711 43.4988 8.90296 44.5863 8.93762C44.6302 9.1078 44.6723 9.27845 44.7145 9.44909C44.4469 9.52194 44.1821 9.59791 43.9131 9.66539C41.9058 10.1795 40.1529 11.1323 38.7507 12.6825C38.0403 13.4657 37.5925 14.4678 38.0959 15.383C39.2387 17.4593 40.9417 19.0509 43.303 19.6052C45.1441 20.0377 46.9423 19.4897 48.6922 18.8434C49.8077 18.4314 50.5887 17.5076 51.6557 17.0336L51.6526 17.0363Z" fill="#F79F3A"/>
<path d="M51.6526 17.0364C50.5869 17.5081 49.8063 18.4336 48.6891 18.8461C46.9392 19.4925 45.141 20.0405 43.2999 19.6079C40.9386 19.0536 39.2355 17.462 38.0928 15.3858C37.5894 14.4705 38.0372 13.4685 38.7476 12.6852C40.152 11.1364 41.9031 10.184 43.91 9.66813C44.1785 9.59886 44.4438 9.52468 44.7113 9.45182C45.0125 9.66454 45.3002 9.46995 45.5881 9.41669C47.2947 9.09863 48.7887 9.62837 50.0427 10.7225C50.6042 11.212 51.1362 11.7052 51.7988 12.0463C52.0565 12.6677 52.2349 13.3075 52.2975 13.9792C52.1236 14.0967 51.96 14.2172 52.2598 14.3806C52.2456 14.518 52.2297 14.6559 52.2155 14.7933C52.1848 14.8814 52.1559 14.9692 52.1256 15.0591C52.1997 15.7756 51.8705 16.3936 51.6495 17.0391L51.6526 17.0364Z" fill="#FDCB73"/>
<path d="M44.3569 25.0365C42.5539 26.5869 40.4509 27.3148 38.2347 27.73C36.554 28.0451 34.5491 27.0148 33.7934 25.4768C33.2905 24.4526 32.6627 23.4548 32.6455 21.9231C35.6524 26.9996 39.7207 27.1632 44.3591 25.0378L44.3569 25.0365Z" fill="#DF7822"/>
<path d="M51.8006 12.0458C51.138 11.7048 50.6042 11.212 50.0445 10.7221C48.7923 9.62745 47.2965 9.09818 45.5898 9.41623C45.302 9.46949 45.0143 9.66409 44.7131 9.45137C44.6692 9.28119 44.6271 9.11054 44.5845 8.93811C46.308 8.82588 48.0166 8.87035 49.5666 9.74293C50.5226 10.2815 51.4318 10.9125 51.8001 12.0441L51.8006 12.0458Z" fill="#FDAC46"/>
<path d="M52.2629 14.3779C51.9631 14.2145 52.1271 14.0958 52.3006 13.9765C52.3892 14.1199 52.3992 14.2549 52.2629 14.3779Z" fill="#FDAC46"/>
<path d="M52.1287 15.0564C52.1594 14.9682 52.1884 14.8805 52.2186 14.7905C52.1879 14.8787 52.159 14.9664 52.1287 15.0564Z" fill="#FDAC46"/>
<path d="M70.5613 65.426C71.0888 66.9674 71.0991 68.4723 70.2377 69.9135C68.6327 70.8625 66.8515 71.047 65.0441 71.093C62.1689 71.1661 59.3845 70.6368 56.6835 69.6829C55.0686 69.1137 53.497 68.4607 52.1228 67.367C51.3785 66.7757 51.1201 65.8259 50.3368 65.3058C49.6762 64.3585 50.0386 63.388 50.4355 62.529C50.9109 61.5007 51.685 60.6609 52.8167 60.26C53.2615 60.1491 53.7278 60.0918 54.1448 59.9174C55.5664 59.3232 57.0486 59.193 58.5713 59.146C59.734 59.1096 60.8539 59.3805 61.9985 59.4291C62.122 59.3973 62.2445 59.3618 62.3676 59.3282L62.3555 59.3256C62.5064 59.5331 62.7339 59.6158 62.9579 59.7147C64.3593 60.337 65.7849 60.8902 67.0434 61.8169C67.5737 62.2074 67.9795 62.9147 68.802 62.8248L68.7935 62.8213C68.8274 63.0934 68.9721 63.3064 69.1587 63.497C69.399 64.0063 69.8481 64.3929 69.9611 64.9866C70.0064 65.2214 70.22 65.472 70.5604 65.4224L70.5613 65.426Z" fill="#F79F3A"/>
<path d="M50.335 65.3063C51.1178 65.8246 51.3767 66.7762 52.121 67.3675C53.497 68.4608 55.0681 69.112 56.6817 69.6835C59.3828 70.6374 62.1653 71.1671 65.0423 71.0935C66.8497 71.0475 68.631 70.8631 70.2359 69.914C69.5947 71.5869 68.1658 72.3454 66.6328 72.9224C63.8101 73.9831 60.9548 73.904 58.1839 72.7904C55.0024 71.5134 52.4043 69.4496 50.5578 66.5175C50.3372 66.1655 50.1278 65.761 50.3373 65.3076L50.335 65.3063Z" fill="#DF7822"/>
<path d="M61.9971 59.4316C60.8526 59.383 59.7327 59.1121 58.5699 59.1484C57.0472 59.1955 55.5669 59.3252 54.1435 59.9198C53.7265 60.0943 53.2602 60.1515 52.8154 60.2625C54.8035 58.8305 57.0794 58.5949 59.4251 58.7042C60.3953 58.7501 61.3818 58.763 62.3031 59.1597C62.2006 59.2511 62.1 59.342 61.9976 59.4334L61.9971 59.4316Z" fill="#FDAC46"/>
<path d="M49.0897 64.8673C49.3397 66.3619 50.1543 67.5732 51.0337 68.7545C51.1678 68.9339 51.4863 69.1325 51.2312 69.3569C51.0152 69.5483 50.784 69.2813 50.6097 69.1237C49.3401 67.9763 48.5549 66.5682 48.3337 64.8599C48.5866 64.8634 48.839 64.8651 49.0919 64.8687L49.0897 64.8673Z" fill="#DF7822"/>
<path d="M49.0897 64.8671C48.8368 64.8636 48.5843 64.8618 48.3314 64.8583C48.0985 62.5053 49.4212 61.1132 51.2903 60.0635C51.3084 60.1333 51.3251 60.2055 51.3413 60.2758C49.7754 61.4058 49.1537 62.9992 49.0879 64.8676L49.0897 64.8671Z" fill="#F79F3A"/>
<path d="M68.8012 62.8289C67.9787 62.9189 67.5728 62.2115 67.0426 61.821C65.784 60.8943 64.3585 60.3412 62.957 59.7188C62.733 59.6199 62.5055 59.5372 62.3546 59.3297C62.7606 59.1275 63.1587 59.3018 63.5117 59.4343C65.2092 60.072 66.8289 60.8673 68.2448 62.0267C68.5038 62.2388 68.7848 62.4472 68.8034 62.8302L68.8012 62.8289Z" fill="#FDCB73"/>
<path d="M51.3431 60.2753C51.3251 60.2055 51.3088 60.1351 51.2921 60.063C52.0531 59.2686 53.1125 59.3125 54.082 59.0967C53.0887 59.3091 52.2465 59.8626 51.3431 60.2753Z" fill="#DF7822"/>
<path d="M70.5613 65.4262C70.2209 65.4758 70.0074 65.2252 69.9621 64.9904C69.8472 64.3972 69.3981 64.0106 69.1597 63.5008C69.2509 63.4772 69.3418 63.4519 69.4326 63.4266C69.8572 64.066 70.3952 64.6417 70.5631 65.4257L70.5613 65.4262Z" fill="#FDAC46"/>
<path d="M69.429 63.4273C69.3377 63.4509 69.2469 63.4762 69.1561 63.5016C68.9694 63.3109 68.8266 63.0975 68.7908 62.8258C69.1828 62.8355 69.2439 63.1981 69.4272 63.4278L69.429 63.4273Z" fill="#FDCB73"/>
<path d="M61.9971 59.4314C62.0995 59.34 62.2002 59.2491 62.3026 59.1577C62.3232 59.2154 62.3456 59.2727 62.3662 59.3304C62.2427 59.3623 62.1202 59.3977 61.9971 59.4314Z" fill="#FDCB73"/>
<path d="M50.904 32.677C49.6359 31.3209 49.2978 29.5739 48.8855 27.8575C49.0392 27.558 49.1934 27.2603 49.3471 26.9608C49.7534 26.9152 49.8543 26.5587 50.0459 26.2876C50.5018 25.6426 50.9672 25.0048 51.4946 24.2745C51.557 24.5163 51.602 24.5869 51.5816 24.6265C50.7354 26.2893 51.8092 27.558 52.4684 28.9068C52.5704 29.1174 52.8305 29.1783 53.0352 29.158C54.0948 29.0547 55.1769 29.0238 56.2017 28.7709C57.32 28.4957 58.4329 28.0959 59.4637 27.5854C60.4504 27.0958 61.9906 27.05 61.7767 25.3034C62.209 25.255 62.6426 25.2042 63.0749 25.1557C63.1889 25.9899 63.69 26.0823 64.3264 25.7519C64.6832 25.5662 65.0406 25.4052 65.4254 25.2983C66.0871 25.1772 66.6808 25.4807 67.3045 25.5968C69.1041 25.9349 71.0593 25.5146 71.7976 23.5816C72.1848 22.5665 72.0845 21.4899 71.9794 20.4165C71.8519 19.1158 70.9167 18.2509 70.3623 17.1825C73.2077 17.8298 74.9032 20.9461 74.4272 23.9253C74.0542 26.2608 72.7317 27.9566 71.0194 29.5257C69.6206 30.8075 68.1073 31.8457 66.4688 32.7461C66.1764 32.9075 65.8558 33.0189 65.5465 33.1521C65.3807 33.1605 65.2529 33.2203 65.1995 33.3907C64.6165 33.5946 64.0329 33.7968 63.4498 34.0007C63.2395 33.8811 63.0312 33.954 62.8263 34.0107C60.1763 34.7421 57.5122 34.6939 54.8464 34.1283C54.5738 34.0706 54.1992 34.217 54.0473 33.8205C53.2745 32.7341 52.7447 32.5899 52.194 33.3186C51.7736 33.4576 51.5839 32.9295 51.1977 32.9718C51.0997 32.873 51.0039 32.7754 50.9058 32.6765L50.904 32.677Z" fill="#F79F3A"/>
<path d="M63.0753 25.1575C62.643 25.2059 62.2094 25.2567 61.7771 25.3052C60.4239 25.1728 59.1289 24.8669 57.9982 24.0581C56.6894 23.1214 56.0571 21.3663 57.2525 19.9325C58.0064 19.0291 58.9942 18.5068 59.9689 17.9343C60.347 17.7126 60.8632 17.6787 61.0427 17.1758C62.3449 16.792 63.6808 16.5907 65.0255 16.4233C65.1498 16.5498 65.2856 16.5511 65.427 16.4554C65.9048 16.4353 66.3849 16.4165 66.8627 16.3964C67.1776 16.7068 67.5547 16.6516 67.9338 16.5748C68.7633 16.697 69.5858 16.844 70.361 17.1847C70.9153 18.253 71.8506 19.118 71.9781 20.4187C72.0832 21.4921 72.183 22.5669 71.7963 23.5838C71.0597 25.5163 69.1046 25.9367 67.3032 25.599C66.679 25.481 66.0858 25.1794 65.424 25.3004C64.6793 24.6041 63.8728 24.9632 63.0758 25.1592L63.0753 25.1575Z" fill="#FDCB73"/>
<path d="M61.0441 17.1737C60.8628 17.6771 60.3483 17.7105 59.9703 17.9322C58.9955 18.5047 58.0078 19.027 57.2539 19.9304C56.0589 21.3659 56.6907 23.1193 57.9995 24.056C59.1307 24.8666 60.4252 25.1707 61.7785 25.303C61.9928 27.0514 60.4522 27.0954 59.4655 27.585C58.4333 28.0978 57.3223 28.4971 56.2035 28.7705C55.1782 29.0217 54.0966 29.0543 53.037 29.1576C52.8323 29.1779 52.5718 29.1152 52.4702 28.9064C51.811 27.5576 50.7372 26.2889 51.5834 24.6261C51.6038 24.5865 51.5588 24.5159 51.4964 24.2741C50.9708 25.0039 50.5036 25.6423 50.0476 26.2872C49.856 26.5583 49.7548 26.913 49.3489 26.9604C49.8438 25.2603 50.9306 23.931 52.1264 22.7054C54.637 20.1317 57.5229 18.1318 61.0436 17.1719L61.0441 17.1737Z" fill="#FDAC46"/>
<path d="M54.0455 33.8209C54.197 34.2155 54.572 34.071 54.8446 34.1287C57.5122 34.6938 60.1745 34.7425 62.8245 34.011C63.0294 33.9543 63.2377 33.8815 63.448 34.0011C62.626 34.6698 61.582 34.7596 60.6214 34.8985C58.13 35.2605 55.6269 35.2146 53.1966 34.4297C52.3866 34.1687 51.5709 33.8556 51.1937 32.9709C51.5798 32.9286 51.7695 33.4566 52.1899 33.3176C52.7297 33.7745 53.3649 33.8761 54.0433 33.8196L54.0455 33.8209Z" fill="#DF7822"/>
<path d="M67.9334 16.5731C67.5537 16.6481 67.1771 16.7051 66.8622 16.3947C67.2409 16.3161 67.6257 16.2168 67.9334 16.5731Z" fill="#DF7822"/>
<path d="M65.4266 16.4538C65.2847 16.5477 65.1493 16.5482 65.025 16.4217C65.1829 16.1307 65.3063 16.2689 65.4266 16.4538Z" fill="#DF7822"/>
<path d="M65.2 33.3926C65.2534 33.2221 65.3812 33.1624 65.547 33.154C65.5272 33.3731 65.5137 33.6021 65.2 33.3926Z" fill="#DF7822"/>
<path d="M58.0799 43.6419C58.2958 43.2652 58.1612 42.8548 58.1855 42.4606C58.921 39.8062 61.0948 38.6645 63.3521 37.721C66.2061 36.5299 69.199 35.8475 72.3225 35.9377C76.012 36.0462 79.5419 36.6907 82.5096 39.1215C82.8678 39.415 83.1909 39.7425 83.3879 40.1731C83.2686 40.1695 83.1463 40.1762 83.0291 40.1587C82.7796 40.1237 82.6115 39.6646 82.3294 39.9399C82.0401 40.2247 82.3999 40.4796 82.488 40.7473C82.51 40.8104 82.4359 40.9078 82.4069 40.9879C81.5838 40.4093 80.9764 39.5572 80.0738 39.0851C77.597 37.7944 74.9495 37.2183 72.1705 37.3832C71.0219 37.4521 69.7983 37.5634 68.9135 38.4184C67.5152 39.7688 67.2325 40.7226 68.4358 42.0419C69.5034 43.2128 70.9324 43.8013 72.2649 44.5561C72.8417 44.8831 73.5496 44.9335 74.0475 45.4203C72.3318 45.7922 71.0589 47.0148 69.5349 47.7596C69.3567 47.8457 69.2266 48.0073 69.2527 48.1973C69.348 48.8701 68.9598 48.8824 68.4716 48.8326C68.2226 48.807 67.9581 48.8772 67.8711 49.1537C67.7642 49.487 68.0386 49.6627 68.2559 49.8091C68.5213 49.9871 68.9332 49.963 69.0127 50.3896C68.699 50.461 68.386 50.5207 68.0682 50.4136C67.9692 50.1926 67.8681 49.9856 67.6632 50.3385C66.7099 50.1583 65.7332 50.1314 64.8017 49.7985C61.8132 48.7297 59.3657 47.0569 58.1358 43.9771C58.1184 43.8651 58.0991 43.7535 58.0812 43.6397L58.0799 43.6419Z" fill="#FDAC46"/>
<path d="M58.1358 43.9774C59.3639 47.0576 61.8132 48.7299 64.8017 49.7988C65.7314 50.1321 66.7099 50.1586 67.6632 50.3387C67.7803 50.4594 67.9219 50.4534 68.0682 50.4138C68.386 50.5209 68.7003 50.459 69.0122 50.388C69.331 50.728 69.7594 50.6423 70.1385 50.6248C71.9063 50.5508 73.6572 50.3895 75.4148 50.106C77.8746 49.7102 80.1283 48.9301 82.2571 47.651C82.7823 47.3339 83.0338 46.6882 83.6939 46.5905C83.6489 47.2594 83.1496 47.6844 82.7606 48.1153C80.8113 50.2823 78.327 51.6264 75.6423 52.6745C73.8591 53.3695 72.0197 53.8537 70.1633 54.2428C67.8777 54.7217 65.5582 54.9361 63.2765 54.1205C61.0456 53.3243 59.7419 51.6449 59.0714 49.4755C58.5822 47.8974 58.1125 46.2991 57.9857 44.6313C57.9677 44.3838 57.8659 44.1445 58.1372 43.9751L58.1358 43.9774Z" fill="#DF7822"/>
<path d="M83.6926 46.5926C83.0343 46.6899 82.781 47.336 82.2557 47.6531C80.1274 48.934 77.8733 49.7123 75.4135 50.1082C73.6559 50.3916 71.905 50.5529 70.1372 50.6269C69.7576 50.6427 69.3292 50.7284 69.0109 50.3901C68.9336 49.9649 68.5218 49.989 68.2545 49.8115C68.0373 49.665 67.7634 49.4911 67.8697 49.1561C67.9573 48.8813 68.2213 48.8094 68.4703 48.8349C68.9589 48.8865 69.3485 48.872 69.2514 48.1997C69.2234 48.0101 69.3553 47.848 69.5336 47.7619C71.0558 47.0176 72.3305 45.7946 74.0444 45.4231C74.9159 45.5899 75.791 45.7482 76.6599 45.9271C78.2106 46.2473 79.7559 46.2804 81.2968 45.8676C82.836 45.4552 83.4561 44.359 83.092 42.7849C82.945 42.1484 82.6827 41.5684 82.4052 40.9885C82.4359 40.9079 82.5083 40.8109 82.4862 40.7478C82.3963 40.4806 82.0365 40.2257 82.3276 39.9405C82.6097 39.6651 82.7778 40.1243 83.0273 40.1592C83.1463 40.1763 83.2664 40.1682 83.3861 40.1736C83.403 40.2094 83.4069 40.2466 83.3996 40.2848C83.5297 40.5971 83.3925 41.0566 83.8839 41.1706C84.5369 41.6001 84.548 42.3462 84.5851 42.9634C84.6662 44.2397 84.5084 45.5147 83.6868 46.5922L83.6926 46.5926Z" fill="#F79F3A"/>
<path d="M83.8893 41.1693C83.3979 41.0554 83.5338 40.598 83.4049 40.2836C83.7624 40.4703 83.722 40.8762 83.8893 41.1693Z" fill="#FDAC46"/>
<path d="M33.8859 34.7884C33.9413 34.7664 34.0004 34.7512 34.0595 34.7436C34.2475 34.8212 34.4197 35.0003 34.223 35.1256C34.0624 35.2282 33.9447 34.9643 33.8854 34.7866L33.8859 34.7884Z" fill="#FDAC46"/>
<path d="M15.7767 68.1047L15.8682 68.1709C15.8353 68.1545 15.8025 68.1381 15.7674 68.1205L15.7767 68.1047Z" fill="#BB5917"/>
<path d="M28.8665 30.5389C28.4446 30.6573 28.4985 30.9548 28.5843 31.2727C28.6951 31.6798 28.7951 32.0896 28.7969 32.5553C28.0599 32.0443 27.6437 31.2823 27.1806 30.5822C26.1993 29.0948 24.9748 28.1 23.0974 27.9711C21.9472 27.8934 20.9186 28.1683 19.8859 28.5685C19.6861 28.6449 19.4963 28.7454 19.2937 28.8111C19.156 28.8542 18.9843 28.9215 18.8795 28.7517C18.7777 28.5869 18.9172 28.4764 18.9947 28.3475C19.7948 27.0387 21.2122 26.6577 22.4909 26.131C23.038 25.9057 23.4277 25.4555 23.9942 25.3132C24.0552 25.3128 24.1148 25.3069 24.1757 25.2989C24.2508 25.3311 24.3277 25.3628 24.4024 25.3932C24.5417 25.4299 24.6814 25.4683 24.8207 25.505C26.1653 26.2108 27.1996 27.1859 27.7838 28.6363C28.0544 29.3078 28.4976 29.908 28.8629 30.5398L28.8665 30.5389Z" fill="#FDCB73"/>
<path d="M24.406 25.3923C24.3308 25.3601 24.2539 25.3284 24.1793 25.298C24.2544 25.3302 24.3313 25.3619 24.406 25.3923Z" fill="#FDAC46"/>
<path d="M12.4971 45.0643C12.5964 44.6948 12.6549 44.3071 12.8037 43.9592C12.9627 43.5838 13.1985 43.5211 13.3849 43.9697C13.2996 44.542 13.2252 45.1191 12.8212 45.5806C12.7613 45.3783 12.7394 45.1527 12.4971 45.0643Z" fill="#F79F3A"/>
<path d="M12.7273 45.9716C12.3947 45.7479 12.6169 45.6619 12.8265 45.5715C12.7939 45.7041 12.7599 45.839 12.7273 45.9716Z" fill="#F79F3A"/>
<path d="M17.9015 45.4048C16.8113 49.3258 17.2442 53.0754 19.1778 56.6557C19.3362 56.9512 19.4641 57.2621 19.6059 57.5675C19.5253 57.5883 19.4466 57.6086 19.3683 57.6307C18.7041 56.7952 17.8791 56.0393 17.4123 55.1032C16.6295 53.534 16.2554 51.8326 16.3926 50.0261C16.5313 48.1962 17.0861 46.4768 17.5515 44.7289C18.2682 44.6433 17.7336 45.2054 17.9015 45.4048Z" fill="#BB5917"/>
<path d="M20.3406 32.0545C17.0203 33.9467 16.9858 37.1425 16.8654 40.3013C15.9304 36.6181 17.5604 32.4145 20.3406 32.0545Z" fill="#DF7822"/>
<path d="M42.4438 48.7939C42.4895 49.5999 42.6015 50.4116 42.1814 51.1658L41.8996 51.1392C41.994 50.3582 42.0867 49.5777 42.1806 48.7949L42.4415 48.7926L42.4438 48.7939Z" fill="#DF7822"/>
<path d="M17.1096 44.6443C16.6079 44.875 16.9518 45.6824 16.3108 45.8172C16.1416 44.8731 16.7142 44.2362 17.2332 43.5769C17.2645 43.6242 17.3064 43.6535 17.3621 43.6621L17.1096 44.6443Z" fill="#BB5917"/>
<path d="M17.2332 43.5768C17.4235 42.7826 17.9129 42.2379 18.5327 41.799L18.7357 41.9568C18.2774 42.526 17.8204 43.0929 17.3621 43.662C17.3078 43.6512 17.2645 43.6242 17.2332 43.5768Z" fill="#DF7822"/>
<path d="M18.2551 43.7048C18.2377 43.3711 18.3514 43.1163 18.7622 42.9473C18.7629 43.3865 18.7378 43.7407 18.3455 43.9662C18.3152 43.8784 18.2849 43.7907 18.2569 43.7043L18.2551 43.7048Z" fill="#F79F3A"/>
<path d="M19.1732 41.6547C19.0693 41.607 18.9959 41.5744 18.9221 41.5399C18.9655 41.4714 18.9934 41.3649 19.0529 41.3438C19.1124 41.3227 19.2025 41.3835 19.2798 41.4094C19.2472 41.4828 19.2164 41.5557 19.1732 41.6547Z" fill="#DF7822"/>
<path d="M42.3946 48.2851C42.3672 48.2234 42.3287 48.1703 42.3269 48.1191C42.3254 48.0316 42.3741 48.0133 42.4288 48.0776C42.4474 48.0976 42.4629 48.1356 42.4577 48.1599C42.4473 48.2008 42.4207 48.2382 42.3946 48.2851Z" fill="#DF7822"/>
<path d="M18.2551 43.7048C18.2854 43.7925 18.3152 43.8784 18.3437 43.9666C18.1225 43.9454 18.1991 43.8205 18.2551 43.7048Z" fill="#BB5917"/>
<path d="M19.1899 64.3753C17.0255 61.9647 15.8479 59.2134 16.2837 55.9083C16.2909 55.8472 16.3021 55.787 16.3191 55.7272C16.4068 55.4161 16.3978 54.9369 16.8223 54.9841C17.1503 55.0198 17.1256 55.4866 17.1377 55.7701C17.1872 56.9018 17.2408 58.0267 17.4512 59.1456C17.7827 60.919 18.5452 62.5202 19.3653 64.1008C19.3069 64.1923 19.2484 64.2838 19.1899 64.3753Z" fill="#BB5917"/>
<path d="M22.0252 58.2655C20.364 56.2218 19.2678 53.9119 18.7341 51.3327C18.8356 51.2969 18.9394 51.2625 19.0426 51.2263C19.7443 53.6571 20.9235 55.8673 22.1746 58.0455C22.125 58.1194 22.0753 58.1934 22.0252 58.2655Z" fill="#BB5917"/>
<path d="M22.0252 58.2655C22.0749 58.1915 22.1245 58.1176 22.1746 58.0454C22.8874 58.5589 23.5143 59.1461 23.8415 60.0075C23.1873 59.477 22.482 59.0074 22.0257 58.2673L22.0252 58.2655Z" fill="#DF7822"/>
<path d="M19.0404 51.225C18.9371 51.2613 18.8352 51.2952 18.7319 51.3314C18.4988 50.5241 18.4395 49.7026 18.5353 48.8677C18.7176 49.6557 19.2338 50.3689 19.0404 51.225Z" fill="#DF7822"/>
<path d="M19.3683 57.6308C19.4471 57.6104 19.5258 57.5901 19.6059 57.5676C20.2291 58.0373 20.8239 58.5296 21.1234 59.2835L21.126 59.2789C20.2579 59.0291 19.802 58.3424 19.3683 57.6308Z" fill="#DF7822"/>
<path d="M19.1899 64.3754C19.2484 64.2839 19.3069 64.1924 19.3653 64.1009C19.9174 64.3539 20.1938 64.8405 20.4278 65.3629L20.3875 65.421C19.6645 65.4452 19.629 64.6786 19.1899 64.3754Z" fill="#DF7822"/>
<path d="M20.4278 65.3629C20.7327 65.4791 21.0274 65.6076 21.1355 65.9599L21.1275 65.9734C20.674 66.0656 20.5015 65.7815 20.3875 65.4211L20.4278 65.3629Z" fill="#DF7822"/>
<path d="M21.1372 65.9594L21.2283 66.0238C21.1955 66.0074 21.1621 65.9893 21.1293 65.9729L21.1372 65.9594Z" fill="#DF7822"/>
<path d="M21.1234 59.2835C21.1544 59.3003 21.186 59.3189 21.217 59.3357C21.2018 59.3358 21.1803 59.3414 21.1704 59.3325C21.1519 59.3201 21.1423 59.2977 21.1278 59.2785L21.1252 59.283L21.1234 59.2835Z" fill="#DF7822"/>
<path d="M63.0753 25.1575C63.8723 24.9614 64.6793 24.6042 65.4236 25.2987C65.0393 25.4074 64.6832 25.5662 64.3246 25.7523C63.6887 26.0845 63.1889 25.9899 63.0731 25.1562L63.0753 25.1575Z" fill="#FDAC46"/>
<path d="M54.0455 33.821C53.3671 33.8776 52.7319 33.7759 52.1922 33.319C52.743 32.5904 53.2727 32.7346 54.0455 33.821Z" fill="#FDAC46"/>
<path d="M82.4074 40.9899C82.6849 41.5698 82.9472 42.1499 83.0943 42.7864C83.4584 44.3604 82.8382 45.4566 81.2991 45.869C79.7599 46.2814 78.2146 46.2483 76.6622 45.9285C75.7932 45.7496 74.9182 45.5913 74.0466 45.4245C73.5488 44.9377 72.8409 44.8873 72.264 44.5604C70.9337 43.8069 69.5025 43.217 68.4349 42.0461C67.2316 40.7268 67.5144 39.7731 68.9127 38.4226C69.7992 37.5672 71.021 37.4564 72.1696 37.3874C74.9486 37.2226 77.5966 37.8004 80.0729 39.0893C80.9751 39.5597 81.5842 40.4113 82.4061 40.9922L82.4074 40.9899Z" fill="#FDCB73"/>
<path d="M68.0664 50.4141C67.9196 50.452 67.7785 50.4598 67.6614 50.339C67.8663 49.9862 67.9674 50.1932 68.0664 50.4141Z" fill="#F79F3A"/>
</g>
<defs>
<clipPath id="clip0_1_20">
<rect width="70" height="76" fill="white" transform="translate(74.4874 0.141602) rotate(75.5328)"/>
</clipPath>
</defs>
</svg>
